<?xml version="1.0" encoding="UTF-8" standalone="no"?>
<!DOCTYPE score-partwise PUBLIC
"-//Recordare//DTD MusicXML 3.0 Partwise//EN"
 "http://www.musicxml.org/dtds/partwise.dtd">
<!-- Generated by ReadScoreLib (C) Organum Ltd and Dolphin Computing -->
<!-- This file is licensed for non-commercial use only -->
<!-- for ReadScoreLib licensing please contact support@playscore.co -->
<score-partwise version="3.0">
<identification>
<encoding>
<software>ReadScoreLib (© Organum Consulting and Dolphin Computing Ltd) Version 4.505</software>
<encoding-date>2023-11-07</encoding-date>
<supports element="beam" type="yes" value="yes"/>
<supports element="stem" type="yes" value="yes"/>
<supports element="accidental" type="yes" value="yes"/>
</encoding>
</identification>
<part-list>
 <score-part id="P1">
  <part-name print-object="no">Part 1</part-name>
 </score-part>
</part-list>
<part id="P1">
<measure number="1">
<attributes>
  <divisions>4</divisions>
  <time symbol="common">
    <beats>4</beats>
    <beat-type>4</beat-type>
  </time>
  <staves>1</staves>
<clef number="1">
    <sign>G</sign>
    <line>2</line>
  </clef>
</attributes>
<attributes>
  <key>
    <fifths>1</fifths>
  </key>
</attributes>
<note>
  <pitch>
    <step>D</step>
    <alter>0</alter>
    <octave>5</octave>
  </pitch>
  <duration>4</duration>
  <voice>1</voice>
  <type>quarter</type>
  <stem>down</stem>
</note>
</measure>
<measure number="2">
<note>
  <pitch>
    <step>D</step>
    <alter>0</alter>
    <octave>5</octave>
  </pitch>
  <duration>4</duration>
  <voice>1</voice>
  <type>quarter</type>
  <stem>down</stem>
  <notations>
<slur type="start" number="1" placement="above" orientation="over"/>
  </notations>
</note>
<note>
  <pitch>
    <step>B</step>
    <alter>0</alter>
    <octave>4</octave>
  </pitch>
  <duration>4</duration>
  <voice>1</voice>
  <type>quarter</type>
  <stem>down</stem>
<notations><technical><fingering>1</fingering> </technical> </notations>  <notations>
<slur type="start" number="2" placement="below" orientation="under"/>
    <slur type="stop" number="1"/>
  </notations>
</note>
<note>
  <pitch>
    <step>C</step>
    <alter>0</alter>
    <octave>5</octave>
  </pitch>
  <duration>2</duration>
  <voice>1</voice>
  <type>eighth</type>
  <stem>up</stem>
  <beam number="1">begin</beam>
</note>
<note>
  <pitch>
    <step>B</step>
    <alter>0</alter>
    <octave>4</octave>
  </pitch>
  <duration>2</duration>
  <voice>1</voice>
  <type>eighth</type>
  <stem>up</stem>
  <beam number="1">continue</beam>
<notations><technical><fingering>1</fingering> </technical> </notations>  <notations>
    <slur type="stop" number="2"/>
  </notations>
</note>
<note>
  <pitch>
    <step>A</step>
    <alter>0</alter>
    <octave>4</octave>
  </pitch>
  <duration>2</duration>
  <voice>1</voice>
  <type>eighth</type>
  <stem>up</stem>
  <beam number="1">continue</beam>
<notations><technical><fingering>0</fingering> </technical> </notations></note>
<note>
  <pitch>
    <step>G</step>
    <alter>0</alter>
    <octave>4</octave>
  </pitch>
  <duration>2</duration>
  <voice>1</voice>
  <type>eighth</type>
  <stem>up</stem>
  <beam number="1">end</beam>
<notations><technical><fingering>3</fingering> </technical> </notations></note>
</measure>
<measure number="3">
<direction placement="below"><direction-type><wedge number="1" spread="15" type="crescendo"/></direction-type><offset>-1</offset>
<staff>1</staff>
</direction>
<note>
  <pitch>
    <step>E</step>
    <alter>0</alter>
    <octave>5</octave>
  </pitch>
  <duration>4</duration>
  <voice>1</voice>
  <type>quarter</type>
  <stem>down</stem>
<notations><technical><fingering>0</fingering> </technical> </notations></note>
<note>
  <pitch>
    <step>G</step>
    <alter>0</alter>
    <octave>5</octave>
  </pitch>
  <duration>8</duration>
  <voice>1</voice>
  <type>half</type>
  <stem>down</stem>
<notations><technical><fingering>2</fingering> </technical> </notations></note>
<direction><direction-type><wedge spread="15" number="1" type="stop"/></direction-type><offset>-1</offset>
<staff>1</staff>
</direction>
<note>
  <pitch>
    <step>F</step>
    <alter>1</alter>
    <octave>5</octave>
  </pitch>
  <duration>2</duration>
  <voice>1</voice>
  <type>eighth</type>
  <stem>down</stem>
  <beam number="1">begin</beam>
</note>
<note>
  <pitch>
    <step>E</step>
    <alter>0</alter>
    <octave>5</octave>
  </pitch>
  <duration>2</duration>
  <voice>1</voice>
  <type>eighth</type>
  <stem>down</stem>
  <beam number="1">end</beam>
<notations><technical><fingering>0</fingering> </technical> </notations>  <notations>
<slur type="start" number="3" placement="below" orientation="under"/>
  </notations>
</note>
</measure>
<measure number="4">
<note>
  <pitch>
    <step>D</step>
    <alter>0</alter>
    <octave>5</octave>
  </pitch>
  <duration>4</duration>
  <voice>1</voice>
  <type>quarter</type>
  <stem>down</stem>
<notations><technical><fingering>0</fingering> </technical> </notations>  <notations>
    <slur type="stop" number="3"/>
  </notations>
</note>
<note>
  <pitch>
    <step>C</step>
    <alter>0</alter>
    <octave>5</octave>
  </pitch>
  <duration>2</duration>
  <voice>1</voice>
  <type>eighth</type>
  <stem>down</stem>
  <beam number="1">begin</beam>
<notations><technical><fingering>2</fingering> </technical> </notations>  <notations>
<slur type="start" number="4" placement="above" orientation="over"/>
  </notations>
</note>
<note>
  <pitch>
    <step>B</step>
    <alter>0</alter>
    <octave>4</octave>
  </pitch>
  <duration>2</duration>
  <voice>1</voice>
  <type>eighth</type>
  <stem>down</stem>
  <beam number="1">end</beam>
<notations><technical><fingering>1</fingering> </technical> </notations>  <notations>
    <slur type="stop" number="4"/>
  </notations>
</note>
<note>
  <pitch>
    <step>A</step>
    <alter>0</alter>
    <octave>4</octave>
  </pitch>
  <duration>2</duration>
  <voice>1</voice>
  <type>eighth</type>
  <stem>up</stem>
  <beam number="1">begin</beam>
<notations><technical><fingering>0</fingering> </technical> </notations></note>
<note>
  <pitch>
    <step>B</step>
    <alter>0</alter>
    <octave>4</octave>
  </pitch>
  <duration>2</duration>
  <voice>1</voice>
  <type>eighth</type>
  <stem>up</stem>
  <beam number="1">continue</beam>
<notations><technical><fingering>1</fingering> </technical> </notations></note>
<note>
  <pitch>
    <step>C</step>
    <alter>0</alter>
    <octave>5</octave>
  </pitch>
  <duration>2</duration>
  <voice>1</voice>
  <type>eighth</type>
  <stem>up</stem>
  <beam number="1">continue</beam>
<notations><technical><fingering>2</fingering> </technical> </notations></note>
<note>
  <pitch>
    <step>A</step>
    <alter>0</alter>
    <octave>4</octave>
  </pitch>
  <duration>2</duration>
  <voice>1</voice>
  <type>eighth</type>
  <stem>up</stem>
  <beam number="1">end</beam>
</note>
</measure>
<measure number="5">
<note>
  <pitch>
    <step>B</step>
    <alter>0</alter>
    <octave>4</octave>
  </pitch>
  <duration>4</duration>
  <voice>1</voice>
  <type>quarter</type>
  <stem>down</stem>
  <notations>
<slur type="start" number="5" placement="above" orientation="over"/>
  </notations>
</note>
<note>
  <pitch>
    <step>G</step>
    <alter>0</alter>
    <octave>4</octave>
  </pitch>
  <duration>8</duration>
  <voice>1</voice>
  <type>half</type>
  <stem>up</stem>
<notations><technical><fingering>2</fingering> </technical> </notations>  <notations>
    <slur type="stop" number="5"/>
  </notations>
</note>
<note>
  <pitch>
    <step>A</step>
    <alter>0</alter>
    <octave>4</octave>
  </pitch>
  <duration>4</duration>
  <voice>1</voice>
  <type>quarter</type>
  <stem>up</stem>
</note>
</measure>
<measure number="6">
<direction placement="below"><direction-type><wedge number="2" spread="15" type="crescendo"/></direction-type><offset>-1</offset>
<staff>1</staff>
</direction>
<note>
  <pitch>
    <step>B</step>
    <alter>0</alter>
    <octave>4</octave>
  </pitch>
  <duration>2</duration>
  <voice>1</voice>
  <type>eighth</type>
  <stem>down</stem>
  <beam number="1">begin</beam>
<notations><technical><fingering>1</fingering> </technical> </notations></note>
<note>
  <pitch>
    <step>C</step>
    <alter>1</alter>
    <octave>5</octave>
  </pitch>
  <duration>2</duration>
  <voice>1</voice>
  <type>eighth</type>
<accidental>sharp</accidental>
  <stem>down</stem>
  <beam number="1">continue</beam>
<notations><technical><fingering>2</fingering> </technical> </notations></note>
<note>
  <pitch>
    <step>D</step>
    <alter>0</alter>
    <octave>5</octave>
  </pitch>
  <duration>2</duration>
  <voice>1</voice>
  <type>eighth</type>
  <stem>down</stem>
  <beam number="1">continue</beam>
<notations><technical><fingering>3</fingering> </technical> </notations></note>
<note>
  <pitch>
    <step>B</step>
    <alter>0</alter>
    <octave>4</octave>
  </pitch>
  <duration>2</duration>
  <voice>1</voice>
  <type>eighth</type>
  <stem>down</stem>
  <beam number="1">end</beam>
<notations><technical><fingering>1</fingering> </technical> </notations>  <notations>
<articulations><tenuto placement="above"/></articulations>
  </notations>
</note>
<note>
  <pitch>
    <step>C</step>
    <alter>1</alter>
    <octave>5</octave>
  </pitch>
  <duration>2</duration>
  <voice>1</voice>
  <type>eighth</type>
  <stem>down</stem>
  <beam number="1">begin</beam>
<notations><technical><fingering>2</fingering> </technical> </notations></note>
<note>
  <pitch>
    <step>D</step>
    <alter>0</alter>
    <octave>5</octave>
  </pitch>
  <duration>2</duration>
  <voice>1</voice>
  <type>eighth</type>
  <stem>down</stem>
  <beam number="1">continue</beam>
<notations><technical><fingering>3</fingering> </technical> </notations></note>
<note>
  <pitch>
    <step>E</step>
    <alter>0</alter>
    <octave>5</octave>
  </pitch>
  <duration>2</duration>
  <voice>1</voice>
  <type>eighth</type>
  <stem>down</stem>
  <beam number="1">continue</beam>
<notations><technical><fingering>0</fingering> </technical> </notations></note>
<note>
  <pitch>
    <step>C</step>
    <alter>1</alter>
    <octave>5</octave>
  </pitch>
  <duration>2</duration>
  <voice>1</voice>
  <type>eighth</type>
  <stem>down</stem>
  <beam number="1">end</beam>
<notations><technical><fingering>2</fingering> </technical> </notations></note>
</measure>
<measure number="7">
<note>
  <pitch>
    <step>D</step>
    <alter>0</alter>
    <octave>5</octave>
  </pitch>
  <duration>2</duration>
  <voice>1</voice>
  <type>eighth</type>
  <stem>down</stem>
  <beam number="1">begin</beam>
<notations><technical><fingering>3</fingering> </technical> </notations></note>
<note>
  <pitch>
    <step>E</step>
    <alter>0</alter>
    <octave>5</octave>
  </pitch>
  <duration>2</duration>
  <voice>1</voice>
  <type>eighth</type>
  <stem>down</stem>
  <beam number="1">continue</beam>
<notations><technical><fingering>0</fingering> </technical> </notations></note>
<note>
  <pitch>
    <step>F</step>
    <alter>1</alter>
    <octave>5</octave>
  </pitch>
  <duration>2</duration>
  <voice>1</voice>
  <type>eighth</type>
  <stem>down</stem>
  <beam number="1">continue</beam>
<notations><technical><fingering>1</fingering> </technical> </notations></note>
<note>
  <pitch>
    <step>D</step>
    <alter>0</alter>
    <octave>5</octave>
  </pitch>
  <duration>2</duration>
  <voice>1</voice>
  <type>eighth</type>
  <stem>down</stem>
  <beam number="1">end</beam>
<notations><technical><fingering>3</fingering> </technical> </notations></note>
<note>
  <pitch>
    <step>E</step>
    <alter>0</alter>
    <octave>5</octave>
  </pitch>
  <duration>2</duration>
  <voice>1</voice>
  <type>eighth</type>
  <stem>down</stem>
  <beam number="1">begin</beam>
</note>
<note>
  <pitch>
    <step>F</step>
    <alter>1</alter>
    <octave>5</octave>
  </pitch>
  <duration>2</duration>
  <voice>1</voice>
  <type>eighth</type>
  <stem>down</stem>
  <beam number="1">continue</beam>
<notations><technical><fingering>1</fingering> </technical> </notations></note>
<note>
  <pitch>
    <step>G</step>
    <alter>0</alter>
    <octave>5</octave>
  </pitch>
  <duration>2</duration>
  <voice>1</voice>
  <type>eighth</type>
  <stem>down</stem>
  <beam number="1">continue</beam>
<notations><technical><fingering>2</fingering> </technical> </notations></note>
<note>
  <pitch>
    <step>E</step>
    <alter>0</alter>
    <octave>5</octave>
  </pitch>
  <duration>2</duration>
  <voice>1</voice>
  <type>eighth</type>
  <stem>down</stem>
  <beam number="1">end</beam>
</note>
</measure>
<measure number="8">
<note>
  <pitch>
    <step>F</step>
    <alter>1</alter>
    <octave>5</octave>
  </pitch>
  <duration>2</duration>
  <voice>1</voice>
  <type>eighth</type>
  <stem>down</stem>
  <beam number="1">begin</beam>
<notations><technical><fingering>1</fingering> </technical> </notations></note>
<note>
  <pitch>
    <step>G</step>
    <alter>0</alter>
    <octave>5</octave>
  </pitch>
  <duration>2</duration>
  <voice>1</voice>
  <type>eighth</type>
  <stem>down</stem>
  <beam number="1">end</beam>
<notations><technical><fingering>2</fingering> </technical> </notations></note>
<direction placement="below"><direction-type><dynamics>
<mf/> 
</dynamics>
</direction-type>
<staff>1</staff>
</direction>
<direction><direction-type><wedge spread="15" number="2" type="stop"/></direction-type><offset>-1</offset>
<staff>1</staff>
</direction>
<note>
  <pitch>
    <step>A</step>
    <alter>0</alter>
    <octave>5</octave>
  </pitch>
  <duration>4</duration>
  <voice>1</voice>
  <type>quarter</type>
  <stem>down</stem>
</note>
<note>
  <pitch>
    <step>A</step>
    <alter>0</alter>
    <octave>4</octave>
  </pitch>
  <duration>4</duration>
  <voice>1</voice>
  <type>quarter</type>
  <stem>up</stem>
<notations><technical><fingering>0</fingering> </technical> </notations>  <notations>
<slur type="start" number="1" placement="above" orientation="over"/>
<slur type="start" number="2" placement="above" orientation="over"/>
<articulations><tenuto placement="below"/></articulations>
  </notations>
</note>
<note>
  <pitch>
    <step>C</step>
    <alter>1</alter>
    <octave>5</octave>
  </pitch>
  <duration>4</duration>
  <voice>1</voice>
  <type>quarter</type>
<accidental>sharp</accidental>
  <stem>down</stem>
<notations><technical><fingering>2</fingering> </technical> </notations>  <notations>
    <slur type="stop" number="1"/>
    <slur type="stop" number="2"/>
<articulations><tenuto placement="above"/></articulations>
  </notations>
</note>
</measure>
<measure number="9">
<direction placement="below"><direction-type><wedge number="3" spread="15" type="diminuendo"/></direction-type><offset>-1</offset>
<staff>1</staff>
</direction>
<note>
  <pitch>
    <step>D</step>
    <alter>0</alter>
    <octave>5</octave>
  </pitch>
  <duration>12</duration>
  <voice>1</voice>
  <type>half</type>
  <dot/>
  <stem>down</stem>
<notations><technical><fingering>3</fingering> </technical> </notations>  <notations>
<slur type="start" number="3" placement="above" orientation="over"/>
<slur type="start" number="4" placement="below" orientation="under"/>
  </notations>
</note>
<note>
  <rest/>
  <duration>1</duration>
  <voice>1</voice>
  <type>16th</type>
</note>
<direction placement="below"><direction-type><dynamics>
<p/> 
</dynamics>
</direction-type>
<staff>1</staff>
</direction>
<note>
  <rest/>
  <duration>1</duration>
  <voice>1</voice>
  <type>16th</type>
</note>
<direction><direction-type><wedge spread="15" number="3" type="stop"/></direction-type><offset>-1</offset>
<staff>1</staff>
</direction>
<note>
  <pitch>
    <step>D</step>
    <alter>0</alter>
    <octave>5</octave>
  </pitch>
  <duration>2</duration>
  <voice>1</voice>
  <type>eighth</type>
  <stem>down</stem>
</note>
</measure>
<measure number="10">
<note>
  <pitch>
    <step>D</step>
    <alter>0</alter>
    <octave>5</octave>
  </pitch>
  <duration>4</duration>
  <voice>1</voice>
  <type>quarter</type>
  <stem>down</stem>
  <notations>
<slur type="start" number="5" placement="above" orientation="over"/>
  </notations>
</note>
<note>
  <pitch>
    <step>B</step>
    <alter>0</alter>
    <octave>4</octave>
  </pitch>
  <duration>4</duration>
  <voice>1</voice>
  <type>quarter</type>
  <stem>down</stem>
  <notations>
    <slur type="stop" number="5"/>
  </notations>
</note>
<note>
  <pitch>
    <step>C</step>
    <alter>0</alter>
    <octave>5</octave>
  </pitch>
  <duration>2</duration>
  <voice>1</voice>
  <type>eighth</type>
  <stem>up</stem>
  <beam number="1">begin</beam>
<notations><technical><fingering>2</fingering> </technical> </notations>  <notations>
<slur type="start" number="1" placement="below" orientation="under"/>
<articulations><staccato placement="below"/></articulations>
  </notations>
</note>
<note>
  <pitch>
    <step>B</step>
    <alter>0</alter>
    <octave>4</octave>
  </pitch>
  <duration>2</duration>
  <voice>1</voice>
  <type>eighth</type>
  <stem>up</stem>
  <beam number="1">continue</beam>
<notations><technical><fingering>1</fingering> </technical> </notations>  <notations>
<slur type="start" number="2" placement="above" orientation="over"/>
    <slur type="stop" number="1"/>
  </notations>
</note>
<note>
  <pitch>
    <step>A</step>
    <alter>0</alter>
    <octave>4</octave>
  </pitch>
  <duration>2</duration>
  <voice>1</voice>
  <type>eighth</type>
  <stem>up</stem>
  <beam number="1">continue</beam>
</note>
<note>
  <pitch>
    <step>G</step>
    <alter>0</alter>
    <octave>4</octave>
  </pitch>
  <duration>2</duration>
  <voice>1</voice>
  <type>eighth</type>
  <stem>up</stem>
  <beam number="1">end</beam>
  <notations>
    <slur type="stop" number="2"/>
  </notations>
</note>
</measure>
</part>
</score-partwise>
